<svg width="102" height="107" viewBox="0 0 102 107" fill="none" xmlns="http://www.w3.org/2000/svg">
<path d="M15.5195 32.5157L9.14612 34.2067L6.95379 28.413L7.49328 27.3791L9.19218 33.2977L16.084 31.4337L15.5195 32.5157ZM12.8095 37.709L4.39435 33.3178L4.82093 32.5003L13.236 36.8915L12.8095 37.709Z" fill="black"/>
<path d="M18.2343 28.8194L10.8546 22.8497L11.4345 22.1328L18.8142 28.1025L18.2343 28.8194Z" fill="black"/>
<path d="M21.9805 24.3933L16.2498 16.5823L16.3775 16.4815L26.8388 18.7294L26.9027 18.679L21.6795 12.5403L22.4034 11.9692L28.1341 19.7801L28.0064 19.8809L17.5451 17.633L17.4812 17.6834L22.7044 23.8221L21.9805 24.3933Z" fill="black"/>
<path d="M34.9704 11.3057L34.8536 11.002L38.0555 9.7704L39.3796 13.2128C39.1408 13.7502 38.7809 14.2373 38.3 14.6741C37.8275 15.1077 37.2453 15.4575 36.5534 15.7236C35.8447 15.9962 35.147 16.1339 34.4603 16.1365C33.7704 16.1306 33.1224 16.007 32.5162 15.7656C31.9067 15.5157 31.3683 15.161 30.901 14.7015C30.4422 14.2387 30.0862 13.6783 29.833 13.0202C29.5799 12.3621 29.4686 11.7075 29.4991 11.0566C29.538 10.4023 29.7016 9.78252 29.9897 9.1971C30.2746 8.60323 30.6728 8.07719 31.1842 7.61896C31.6924 7.1523 32.3009 6.78267 33.0096 6.51007C33.3134 6.39324 33.6505 6.28777 34.0211 6.19366C34.4002 6.0963 34.7688 6.0223 35.1271 5.97167C35.4821 5.91261 35.793 5.88989 36.0597 5.90351L36.269 6.63659L36.1931 6.6658C35.742 6.5003 35.251 6.43248 34.7201 6.46234C34.1892 6.49221 33.658 6.60936 33.1264 6.81382C32.3333 7.11887 31.707 7.56801 31.2475 8.16123C30.7848 8.74601 30.5096 9.42814 30.422 10.2076C30.3396 10.9754 30.4639 11.7896 30.7949 12.6502C31.1259 13.5109 31.5809 14.2027 32.1598 14.7258C32.744 15.2373 33.4053 15.5592 34.1439 15.6916C34.8793 15.8155 35.6435 15.725 36.4366 15.4199C36.926 15.2317 37.3514 14.9906 37.7129 14.6965C38.0829 14.3993 38.371 14.0657 38.5774 13.6957L37.3118 10.4052L34.9704 11.3057Z" fill="black"/>
<path d="M44.339 13.5102L43.0086 4.11192L43.9215 3.98268L45.2519 13.3809L44.339 13.5102Z" fill="black"/>
<path d="M50.4454 13.0134L50.5195 3.52173L51.4416 3.52894L51.3674 13.0206L50.4454 13.0134Z" fill="black"/>
<path d="M62.0833 9.93751L62.1589 9.62097L65.4957 10.4177L64.6392 14.0051C64.1382 14.313 63.5658 14.511 62.9221 14.5989C62.2872 14.689 61.6092 14.6479 60.8882 14.4758C60.1496 14.2994 59.4965 14.018 58.9289 13.6316C58.3634 13.2363 57.8991 12.7676 57.5359 12.2255C57.1749 11.6746 56.9318 11.0775 56.8065 10.4342C56.6901 9.79298 56.7138 9.12946 56.8775 8.44362C57.0413 7.75779 57.3199 7.15515 57.7135 6.63571C58.1158 6.11836 58.6014 5.6999 59.1703 5.38033C59.7413 5.05195 60.3673 4.84359 61.0483 4.75525C61.7313 4.65811 62.4422 4.69771 63.1807 4.87406C63.4973 4.94964 63.835 5.05349 64.1938 5.18563C64.5613 5.31987 64.9072 5.46749 65.2312 5.62851C65.5573 5.78072 65.8265 5.93793 66.0387 6.10013L65.7964 6.82298L65.7173 6.80408C65.439 6.41236 65.0726 6.07858 64.618 5.80274C64.1634 5.52691 63.6591 5.32286 63.1052 5.1906C62.2786 4.99326 61.5081 5.0091 60.7935 5.23813C60.0811 5.45837 59.4682 5.86503 58.9548 6.4581C58.4523 7.04447 58.094 7.78609 57.8799 8.68295C57.6658 9.57982 57.6493 10.4077 57.8306 11.1666C58.0227 11.9189 58.3858 12.5585 58.9198 13.0857C59.456 13.604 60.1373 13.9619 60.9638 14.1592C61.4738 14.281 61.961 14.323 62.4254 14.2852C62.8986 14.2494 63.325 14.1375 63.7045 13.9493L64.5233 10.5201L62.0833 9.93751Z" fill="black"/>
<path d="M70.3951 12.3786C70.757 11.7841 71.1974 11.2954 71.7161 10.9127C72.2473 10.527 72.8172 10.2602 73.4259 10.1122C74.047 9.96113 74.6759 9.93651 75.3124 10.0383C75.9614 10.1371 76.5832 10.3674 77.1777 10.7294C77.7723 11.0914 78.2585 11.5356 78.6365 12.0621C79.0269 12.5855 79.2938 13.1554 79.4371 13.7718C79.5928 14.3853 79.6175 15.0141 79.511 15.6583C79.4169 16.2996 79.1889 16.9175 78.8269 17.512C78.465 18.1066 78.0184 18.5967 77.4872 18.9825C76.9685 19.3651 76.3985 19.632 75.7774 19.783C75.1687 19.931 74.5399 19.9557 73.8909 19.8569C73.2544 19.7551 72.6388 19.5232 72.0443 19.1613C71.4497 18.7993 70.9572 18.3566 70.5668 17.8331C70.1888 17.3067 69.922 16.7367 69.7662 16.1233C69.6229 15.5069 69.5983 14.8781 69.6924 14.2368C69.7989 13.5926 70.0331 12.9732 70.3951 12.3786ZM71.2753 12.9145C70.7958 13.7021 70.5141 14.4778 70.4301 15.2416C70.3508 15.9977 70.461 16.6945 70.7607 17.3321C71.0652 17.9619 71.5495 18.479 72.2135 18.8833C72.8776 19.2876 73.5592 19.4803 74.2586 19.4616C74.9626 19.4351 75.6346 19.2092 76.2746 18.7839C76.9145 18.3586 77.4719 17.756 77.9467 16.9761C78.4215 16.1963 78.6985 15.4283 78.7778 14.6722C78.8618 13.9084 78.7539 13.2078 78.4542 12.5702C78.1544 11.9326 77.6725 11.4117 77.0085 11.0074C76.3444 10.6031 75.6604 10.4142 74.9563 10.4406C74.2647 10.4641 73.5951 10.6861 72.9474 11.1067C72.3122 11.5243 71.7548 12.1269 71.2753 12.9145Z" fill="black"/>
<path d="M79.4023 24.3405L86.5676 18.1151L88.5241 20.367C89.2119 21.1586 89.6606 21.9783 89.8702 22.826C90.0798 23.6738 90.0574 24.4956 89.8029 25.2916C89.5552 26.0816 89.0731 26.7879 88.3566 27.4104C87.6401 28.0329 86.8699 28.4146 86.0463 28.5555C85.2294 28.6904 84.4159 28.5948 83.6057 28.2688C82.7956 27.9428 82.0466 27.384 81.3589 26.5925L79.4023 24.3405ZM88.2785 20.5805L86.9266 19.0246L80.2527 24.8231L81.6045 26.379C82.4642 27.3685 83.4276 27.8847 84.4948 27.9275C85.5678 27.9772 86.6298 27.5455 87.6807 26.6325C88.7316 25.7194 89.3074 24.7281 89.4081 23.6587C89.5147 22.596 89.1382 21.57 88.2785 20.5805Z" fill="black"/>
<path d="M86.7434 33.2993L87.5081 33.0099L87.5444 33.0828C87.4261 33.5353 87.3887 33.9981 87.4321 34.4712C87.4755 34.9443 87.5938 35.3751 87.787 35.7637C88.0607 36.3141 88.4318 36.6849 88.9004 36.8759C89.377 37.0629 89.8703 37.0297 90.3802 36.7761C90.6636 36.6352 90.8944 36.4397 91.0729 36.1894C91.2553 35.9473 91.3996 35.6181 91.5056 35.2019C91.6157 34.7939 91.6917 34.2664 91.7335 33.6197C91.7628 33.171 91.8083 32.7345 91.8699 32.3101C91.9395 31.8817 92.0698 31.4939 92.2605 31.1467C92.4594 30.7954 92.7653 30.5171 93.1781 30.3119C93.7933 30.006 94.3977 29.9831 94.9914 30.2431C95.5933 30.4992 96.0753 30.9914 96.4375 31.7199C96.5985 32.0437 96.7351 32.4099 96.8474 32.8185C96.9678 33.223 97.0257 33.5526 97.0211 33.8073L96.311 34.0847L96.2747 34.0118C96.5472 33.3009 96.5043 32.5852 96.1461 31.8648C95.8885 31.3468 95.5477 30.9963 95.1236 30.8134C94.7076 30.6266 94.277 30.6438 93.8318 30.8652C93.4999 31.0302 93.2548 31.258 93.0965 31.5488C92.9503 31.8436 92.8485 32.1769 92.7911 32.5487C92.7417 32.9165 92.7065 33.3025 92.6854 33.7067C92.6561 34.1756 92.6085 34.6384 92.5428 35.0951C92.4812 35.5599 92.3387 35.984 92.1155 36.3676C91.9044 36.7552 91.552 37.0718 91.0582 37.3173C90.6049 37.5427 90.1519 37.6367 89.6992 37.5993C89.2546 37.5579 88.8386 37.3912 88.4511 37.0993C88.0677 36.8154 87.7492 36.4185 87.4956 35.9086C87.3346 35.5848 87.1859 35.1842 87.0496 34.7069C86.9132 34.2295 86.8111 33.7603 86.7434 33.2993Z" fill="black"/>
<path d="M86.4005 74.4844L92.7738 72.7934L94.9661 78.5871L94.4266 79.6209L92.7277 73.7023L85.8359 75.5663L86.4005 74.4844ZM89.1105 69.2911L97.5256 73.6823L97.099 74.4997L88.6839 70.1085L89.1105 69.2911Z" fill="black"/>
<path d="M83.6857 78.1806L91.0653 84.1503L90.4854 84.8672L83.1057 78.8975L83.6857 78.1806Z" fill="black"/>
<path d="M79.9395 82.6067L85.6701 90.4176L85.5424 90.5184L75.0811 88.2705L75.0172 88.3209L80.2404 94.4596L79.5165 95.0308L73.7858 87.2198L73.9136 87.119L84.3748 89.3669L84.4387 89.3165L79.2156 83.1778L79.9395 82.6067Z" fill="black"/>
<path d="M66.9495 95.6943L67.0663 95.998L63.8644 97.2296L62.5403 93.7872C62.7791 93.2498 63.139 92.7627 63.62 92.3259C64.0924 91.8923 64.6746 91.5425 65.3665 91.2764C66.0752 91.0038 66.7729 90.8661 67.4596 90.8635C68.1495 90.8694 68.7976 90.993 69.4038 91.2344C70.0132 91.4843 70.5516 91.839 71.0189 92.2985C71.4778 92.7613 71.8338 93.3217 72.0869 93.9798C72.34 94.6379 72.4513 95.2925 72.4208 95.9434C72.3819 96.5977 72.2184 97.2175 71.9302 97.8029C71.6453 98.3968 71.2471 98.9228 70.7357 99.381C70.2275 99.8477 69.619 100.217 68.9103 100.49C68.6066 100.607 68.2694 100.712 67.8988 100.806C67.5198 100.904 67.1511 100.978 66.7929 101.028C66.4378 101.087 66.1269 101.11 65.8602 101.096L65.6509 100.363L65.7268 100.334C66.1779 100.5 66.6689 100.568 67.1998 100.538C67.7307 100.508 68.2619 100.391 68.7935 100.186C69.5866 99.8811 70.2129 99.432 70.6724 98.8388C71.1351 98.254 71.4103 97.5719 71.4979 96.7924C71.5803 96.0246 71.456 95.2104 71.125 94.3498C70.794 93.4891 70.339 92.7973 69.7601 92.2742C69.176 91.7627 68.5146 91.4408 67.776 91.3084C67.0406 91.1845 66.2764 91.275 65.4833 91.5801C64.9939 91.7683 64.5685 92.0094 64.207 92.3035C63.8371 92.6007 63.5489 92.9343 63.3425 93.3043L64.6082 96.5948L66.9495 95.6943Z" fill="black"/>
<path d="M57.5809 93.4898L58.9114 102.888L57.9984 103.017L56.668 93.619L57.5809 93.4898Z" fill="black"/>
<path d="M51.4746 93.9866L51.4004 103.478L50.4784 103.471L50.5525 93.9794L51.4746 93.9866Z" fill="black"/>
<path d="M39.8366 97.0626L39.761 97.3791L36.4242 96.5824L37.2807 92.995C37.7818 92.6871 38.3541 92.4892 38.9978 92.4012C39.6327 92.3111 40.3107 92.3522 41.0317 92.5243C41.7703 92.7007 42.4234 92.9821 42.991 93.3686C43.5565 93.7638 44.0208 94.2325 44.384 94.7746C44.745 95.3255 44.9882 95.9226 45.1134 96.5659C45.2298 97.2071 45.2062 97.8707 45.0424 98.5565C44.8787 99.2423 44.6 99.845 44.2065 100.364C43.8041 100.882 43.3185 101.3 42.7496 101.62C42.1786 101.948 41.5526 102.157 40.8717 102.245C40.1886 102.342 39.4778 102.302 38.7392 102.126C38.4226 102.05 38.085 101.947 37.7262 101.814C37.3586 101.68 37.0128 101.533 36.6887 101.372C36.3626 101.219 36.0934 101.062 35.8812 100.9L36.1235 100.177L36.2027 100.196C36.4809 100.588 36.8473 100.922 37.3019 101.197C37.7565 101.473 38.2608 101.677 38.8148 101.81C39.6413 102.007 40.4118 101.991 41.1264 101.762C41.8388 101.542 42.4518 101.135 42.9651 100.542C43.4676 99.9557 43.8259 99.214 44.04 98.3172C44.2542 97.4203 44.2706 96.5924 44.0893 95.8335C43.8972 95.0813 43.5341 94.4416 43.0001 93.9144C42.464 93.3961 41.7827 93.0382 40.9561 92.8409C40.4461 92.7191 39.9589 92.6771 39.4945 92.715C39.0213 92.7507 38.5949 92.8626 38.2154 93.0508L37.3966 96.48L39.8366 97.0626Z" fill="black"/>
<path d="M31.5249 94.6214C31.1629 95.2159 30.7225 95.7046 30.2038 96.0873C29.6726 96.473 29.1027 96.7398 28.494 96.8878C27.8729 97.0389 27.244 97.0635 26.6075 96.9617C25.9585 96.8629 25.3368 96.6326 24.7422 96.2706C24.1477 95.9086 23.6614 95.4644 23.2834 94.9379C22.893 94.4145 22.6261 93.8446 22.4828 93.2282C22.3271 92.6147 22.3025 91.9859 22.4089 91.3417C22.503 90.7004 22.731 90.0825 23.093 89.488C23.455 88.8934 23.9015 88.4033 24.4327 88.0175C24.9514 87.6349 25.5214 87.368 26.1425 87.217C26.7512 87.069 27.38 87.0443 28.029 87.1431C28.6655 87.2449 29.2811 87.4768 29.8757 87.8387C30.4702 88.2007 30.9627 88.6434 31.3531 89.1669C31.7311 89.6933 31.998 90.2633 32.1537 90.8767C32.297 91.4931 32.3216 92.1219 32.2276 92.7632C32.1211 93.4074 31.8868 94.0268 31.5249 94.6214ZM30.6446 94.0855C31.1241 93.2979 31.4059 92.5222 31.4899 91.7584C31.5692 91.0023 31.4589 90.3055 31.1592 89.6679C30.8547 89.0381 30.3705 88.521 29.7064 88.1167C29.0424 87.7124 28.3607 87.5197 27.6613 87.5384C26.9573 87.5649 26.2853 87.7908 25.6454 88.2161C25.0054 88.6414 24.448 89.244 23.9732 90.0239C23.4985 90.8037 23.2214 91.5717 23.1421 92.3278C23.0581 93.0916 23.166 93.7922 23.4657 94.4298C23.7655 95.0674 24.2474 95.5883 24.9114 95.9926C25.5755 96.3969 26.2595 96.5858 26.9636 96.5594C27.6552 96.5359 28.3248 96.3139 28.9725 95.8933C29.6077 95.4757 30.1651 94.8731 30.6446 94.0855Z" fill="black"/>
<path d="M22.5176 82.6595L15.3524 88.8849L13.3958 86.633C12.708 85.8414 12.2593 85.0217 12.0497 84.174C11.8401 83.3262 11.8625 82.5044 12.117 81.7084C12.3647 80.9184 12.8468 80.2121 13.5633 79.5896C14.2799 78.9671 15.05 78.5854 15.8737 78.4445C16.6905 78.3096 17.504 78.4052 18.3142 78.7312C19.1243 79.0572 19.8733 79.616 20.5611 80.4075L22.5176 82.6595ZM13.6415 86.4195L14.9933 87.9754L21.6672 82.1769L20.3154 80.621C19.4557 79.6315 18.4923 79.1153 17.4252 79.0725C16.3521 79.0228 15.2902 79.4545 14.2392 80.3675C13.1883 81.2806 12.6125 82.2719 12.5119 83.3413C12.4052 84.404 12.7818 85.43 13.6415 86.4195Z" fill="black"/>
<path d="M15.1765 73.7007L14.4118 73.9901L14.3756 73.9172C14.4938 73.4647 14.5312 73.0019 14.4878 72.5288C14.4444 72.0557 14.3261 71.6249 14.1329 71.2363C13.8592 70.6859 13.4881 70.3151 13.0196 70.1241C12.5429 69.9371 12.0496 69.9703 11.5397 70.2239C11.2564 70.3648 11.0255 70.5603 10.8471 70.8106C10.6646 71.0527 10.5203 71.3819 10.4143 71.7981C10.3042 72.2061 10.2283 72.7336 10.1864 73.3803C10.1571 73.829 10.1117 74.2655 10.0501 74.6899C9.98039 75.1183 9.85016 75.5061 9.65937 75.8533C9.46049 76.2046 9.15464 76.4829 8.74182 76.6881C8.12664 76.994 7.52219 77.0169 6.92848 76.7569C6.32667 76.5008 5.84465 76.0086 5.48242 75.2801C5.32143 74.9563 5.18479 74.5901 5.0725 74.1815C4.95212 73.777 4.89423 73.4474 4.89884 73.1927L5.60897 72.9153L5.64519 72.9882C5.37274 73.6991 5.41562 74.4148 5.77383 75.1352C6.03141 75.6532 6.37225 76.0037 6.79633 76.1866C7.21233 76.3734 7.64292 76.3562 8.08812 76.1348C8.42 75.9698 8.66509 75.742 8.82341 75.4512C8.96961 75.1564 9.07142 74.8231 9.12884 74.4513C9.17818 74.0835 9.2134 73.6975 9.23451 73.2933C9.26386 72.8244 9.31138 72.3616 9.37708 71.9049C9.43876 71.4401 9.5812 71.016 9.80441 70.6324C10.0155 70.2448 10.3679 69.9282 10.8617 69.6827C11.315 69.4573 11.768 69.3633 12.2207 69.4007C12.6653 69.4421 13.0813 69.6088 13.4688 69.9007C13.8522 70.1846 14.1707 70.5815 14.4243 71.0914C14.5853 71.4152 14.734 71.8158 14.8704 72.2931C15.0068 72.7705 15.1088 73.2397 15.1765 73.7007Z" fill="black"/>
<circle cx="7.0013" cy="51.6123" r="3.38998" fill="#E61515"/>
<circle cx="94.8021" cy="51.6123" r="3.38998" fill="#E61515"/>
<path d="M73.3313 51.8136H34.7949M34.7949 51.8136L38.6809 47.9276M34.7949 51.8136L38.6809 55.6997" stroke="black" stroke-opacity="0.6" stroke-width="0.971506" stroke-linecap="round" stroke-linejoin="round"/>
</svg>
