<svg width="29" height="29" viewBox="0 0 29 29" fill="none" xmlns="http://www.w3.org/2000/svg">
<path fill-rule="evenodd" clip-rule="evenodd" d="M7.06014 23.3383C7.22774 23.2545 7.47914 22.9821 7.60484 22.8355L7.94004 22.5212C7.96099 22.5003 7.98194 22.5003 8.00289 22.4584C8.06574 22.4165 8.08669 22.3746 8.14954 22.3327L8.40094 22.0813C8.46379 22.0394 8.48474 22.0184 8.54759 21.9556C8.56854 21.9346 8.58949 21.9137 8.61044 21.8927C8.65234 21.8508 8.65234 21.8508 8.69424 21.8299C8.77804 21.7461 9.09229 21.4318 9.21799 21.3061C9.32274 21.2433 9.40654 21.1385 9.49034 21.0547L10.2236 20.3634C10.3702 20.2377 10.8102 19.7768 10.9568 19.6511C11.1035 19.5254 11.2292 19.3578 11.3549 19.253C11.4387 19.3159 11.4806 19.3787 11.5434 19.4625L11.732 19.6511C11.7529 19.693 11.7739 19.7139 11.8158 19.7558L12.1719 20.1329C12.2138 20.1748 12.2348 20.1958 12.2767 20.2377L12.4443 20.4262C12.4862 20.4891 12.4862 20.4891 12.5281 20.531L14.4136 22.605C14.4555 22.626 14.4764 22.6679 14.4974 22.6888L14.6859 22.8983C14.8326 23.045 15.1468 23.4221 15.3144 23.5897L16.4876 24.8467C16.5086 24.8886 16.5295 24.9095 16.5714 24.9514L16.8438 25.2447C16.8857 25.2866 16.8857 25.3076 16.9276 25.3495C16.9904 25.4333 17.0533 25.4752 17.0952 25.559C16.8228 25.6847 16.1524 25.8732 15.8382 25.957C15.3982 26.0408 15.3144 26.0408 14.9373 26.0827L14.5393 26.1037C14.4555 26.1037 14.4136 26.1246 14.3298 26.1246C14.1831 26.1246 14.0784 26.1037 13.9317 26.1037L13.5337 26.0827C13.2823 26.0618 13.0309 26.0199 12.8004 25.9989C12.3814 25.9361 11.6063 25.7685 11.2292 25.6637C10.9987 25.5799 10.8521 25.538 10.6007 25.4542L8.90374 24.6372L8.25429 24.2391C7.96099 24.0506 7.45819 23.7154 7.22774 23.5059C7.14394 23.443 7.10204 23.4011 7.06014 23.3383ZM28.9738 15.6496V16.2991C28.9529 16.5714 28.9319 16.8438 28.8691 17.1161C28.8481 17.2418 28.8272 17.3885 28.8062 17.5142C28.7015 18.017 28.6177 18.5198 28.492 19.0016C28.3872 19.3578 28.2825 19.693 28.1777 20.0491C28.1568 20.112 28.1358 20.1539 28.1149 20.2167L27.9473 20.7195C27.8006 21.0966 27.654 21.4737 27.4864 21.8299L27.3607 22.0603C27.1931 22.3955 26.9626 22.8564 26.7531 23.1497C26.4389 23.6316 26.1456 24.0925 25.7475 24.5115L25.5799 24.6791C25.4333 24.8257 25.2866 24.9933 25.119 25.119L24.9933 25.2238C24.8048 25.4123 24.5743 25.5799 24.3648 25.7266L24.0925 25.8942C24.0296 25.8104 23.6316 25.4123 23.5478 25.3076L22.1441 23.7992L22.1232 23.7782C22.1022 23.7573 22.1232 23.7782 22.1022 23.7573C21.9556 23.5897 21.4528 23.0869 21.3899 22.9821C21.3061 22.8774 20.9709 22.5422 20.8452 22.4165C20.8033 22.3327 20.7195 22.2908 20.6776 22.2279L18.6036 20.0072C18.5617 19.9653 18.5407 19.9444 18.4988 19.9025C18.4779 19.8606 18.4569 19.8396 18.415 19.8187L17.158 18.4569C17.0533 18.3312 16.9066 18.2055 16.8019 18.0798C16.7809 18.0379 16.739 18.017 16.7181 17.9751L16.5295 17.7865C16.4667 17.7237 16.4248 17.6608 16.341 17.598C16.32 17.5561 16.2991 17.5351 16.2572 17.4932L15.8172 17.0114C15.4401 16.6552 15.1049 16.2153 14.7278 15.8591L14.5602 15.6706C14.5183 15.6287 14.4974 15.6077 14.4555 15.5658L13.4708 14.4974C13.4289 14.4764 13.408 14.4555 13.387 14.4136L12.9261 13.9317C12.8423 13.8479 12.6328 13.6384 12.5909 13.5546C12.6328 13.5127 12.8633 13.2613 12.9052 13.1985L14.665 11.3549C14.7069 11.3339 14.7069 11.313 14.7278 11.2711C14.7697 11.2501 14.7697 11.2292 14.7907 11.2082L15.4611 10.5378C15.503 10.475 15.5449 10.4331 15.5868 10.3912C15.6287 10.3283 15.6706 10.3074 15.7125 10.2655C15.7963 10.1607 15.901 10.0769 15.9848 9.97219L16.1734 9.78364C16.1943 9.74174 16.2153 9.74174 16.2362 9.69984C16.32 9.61604 16.4248 9.53224 16.4876 9.42749C16.5505 9.38559 16.5714 9.34369 16.6343 9.30179L16.76 9.15514C16.8228 9.07134 16.9276 8.98754 16.9904 8.90374H17.0114C17.0114 8.88279 17.0114 8.88279 17.0114 8.88279L17.4094 8.46379C17.4304 8.44284 17.4513 8.42189 17.4723 8.40094C17.4932 8.37999 17.5142 8.35904 17.5351 8.33809L17.7237 8.12859C17.7446 8.10764 17.7446 8.10764 17.7656 8.10764L18.3103 7.54199V7.52104C18.415 7.41629 18.6874 7.14394 18.7712 7.03919C18.7921 6.99729 18.8131 6.99729 18.834 6.97634C19.1273 6.68304 19.7139 6.20119 20.1329 6.13834L20.6357 6.09644C20.8033 6.09644 20.9709 6.07549 21.1385 6.07549C21.4947 6.07549 21.8508 6.07549 22.207 6.07549C22.1651 6.01264 22.1232 5.99169 22.0603 5.94979C22.0603 5.92884 22.0394 5.92884 22.0184 5.90789L21.8299 5.74029C21.6832 5.61459 21.5156 5.46794 21.348 5.34224C21.1176 5.17464 20.8871 5.00704 20.6357 4.86039L20.1958 4.58804C20.0072 4.48329 19.8187 4.39949 19.6092 4.29474C19.4206 4.18999 19.2321 4.08524 19.0226 4.00144L18.5407 3.8129C18.436 3.79194 18.3731 3.75005 18.2684 3.7291C18.2265 3.70815 18.1846 3.6872 18.1427 3.6872C18.1008 3.66625 18.0589 3.6453 18.017 3.62435C17.9751 3.62435 17.9332 3.6034 17.8703 3.58245C17.5561 3.49865 17.2418 3.41485 16.9276 3.33105C16.0267 3.12155 15.1468 2.99585 14.1203 2.99585L13.7641 3.0168C13.7013 3.0168 13.6384 3.0168 13.5756 3.0168C13.4918 3.0168 13.4918 3.03775 13.408 3.03775C13.3032 3.03775 13.1775 3.03775 13.0728 3.0587L12.4443 3.12155C11.8577 3.20535 11.5225 3.3101 10.9778 3.45675C10.5169 3.58245 10.0979 3.771 9.69984 3.98049L9.32274 4.14809C9.13419 4.25284 8.92469 4.33664 8.73614 4.46234C8.48474 4.60899 8.23334 4.79754 7.98194 4.96514C7.94004 4.98609 7.91909 5.00704 7.87719 5.02799C7.79339 5.06989 7.75149 5.11179 7.66769 5.17464L6.70399 6.01264C6.53639 6.18024 6.36879 6.41069 6.18024 6.59924L5.32129 7.66769C5.02799 8.10764 4.83944 8.42189 4.56709 8.90374L4.23189 9.61604L3.6872 10.873C3.62435 11.0406 3.54055 11.2292 3.49865 11.3968L3.3101 12.2557C3.1844 12.8423 3.16345 13.3032 3.07965 13.8479C3.0587 14.0784 2.99585 14.6231 2.99585 14.8326V15.1049C2.99585 15.1887 3.0168 15.1887 3.0168 15.2725C3.0168 15.5658 3.0587 15.8801 3.07965 16.1734C3.20535 17.0742 3.41485 17.996 3.75005 18.834C3.87575 19.1483 4.00144 19.4625 4.12714 19.7558C4.27379 20.0491 4.42044 20.3634 4.60899 20.6148C4.62994 20.6567 4.65089 20.6776 4.67184 20.7195C4.69279 20.7614 4.71374 20.7824 4.73469 20.8243C4.88134 21.0547 5.04894 21.2852 5.21654 21.4947C5.38414 21.7042 5.86599 22.3327 6.09644 22.4374C6.09644 21.788 6.11739 21.2642 6.28499 20.7195C6.38974 20.4262 6.47354 20.3005 6.59924 20.0491C6.62019 20.0072 6.64114 19.9653 6.66209 19.9444C6.80874 19.7349 6.99729 19.5463 7.18584 19.3787L7.26964 19.274C7.31154 19.253 7.29059 19.253 7.33249 19.2321C7.45819 19.1273 8.04479 18.5198 8.19144 18.3731L8.29619 18.2893C8.31714 18.2474 8.31714 18.2474 8.33809 18.2265C8.35904 18.2055 8.37999 18.2055 8.37999 18.1846C8.58949 18.017 9.09229 17.4304 9.36464 17.2209L9.44844 17.1161C9.55319 17.0533 9.65794 16.9276 9.74174 16.8438C9.88839 16.7181 9.99314 16.5924 10.1398 16.4457L10.5169 16.0686C10.6635 15.9639 10.7892 15.8172 10.9149 15.6915C10.9987 15.5868 11.2082 15.3773 11.292 15.3144C11.3758 15.3354 11.5644 15.5868 11.6482 15.6706C11.7948 15.8172 11.9205 15.9848 12.0672 16.1315L13.0099 17.1371C13.1356 17.2628 13.3032 17.4723 13.4289 17.598L13.5965 17.7865C13.7432 17.9332 13.8689 18.1008 14.0155 18.2265L14.8535 19.1483C14.9583 19.274 15.1887 19.4835 15.2725 19.6092C15.3773 19.7349 15.503 19.8606 15.6077 19.9863L16.1315 20.531C16.1524 20.5729 16.1734 20.5938 16.1943 20.6148C16.3619 20.7824 16.9485 21.4109 17.0533 21.5366L18.3941 23.0031C18.4988 23.1497 18.7293 23.3383 18.8131 23.464L19.3159 24.0087C19.5254 24.2182 19.7139 24.4486 19.9234 24.6581L20.8871 25.7266L20.9081 25.7475C20.9081 25.7475 20.9081 25.7475 20.929 25.7685C21.1176 25.978 21.3271 26.1875 21.5156 26.397L21.767 26.6693C21.8089 26.7112 21.8089 26.7322 21.8508 26.7741C21.8927 26.816 22.0813 27.0045 22.1022 27.0464C21.8927 27.1512 21.6832 27.235 21.4947 27.3188C21.4109 27.3607 21.369 27.3816 21.2852 27.4026C21.2642 27.4235 21.2223 27.4445 21.1804 27.4654L20.2796 27.8635C19.9863 27.9892 19.3368 28.2196 19.0016 28.3034C18.6036 28.4291 18.2265 28.5129 17.8284 28.5967C17.6608 28.6386 17.4932 28.6596 17.3466 28.6805C17.0533 28.7434 16.1105 28.911 15.8172 28.911C15.5239 28.911 15.2725 28.9529 15.0211 28.9738C14.665 29.0157 13.7222 28.9948 13.3242 28.9948C13.2404 28.9948 13.2194 28.9529 13.1356 28.9529C13.0518 28.9529 12.968 28.9529 12.9052 28.9529C12.7795 28.9529 12.6538 28.9319 12.5071 28.911C11.8996 28.8691 11.2711 28.7643 10.6845 28.5758C10.5797 28.5548 10.475 28.5339 10.3493 28.492C10.2445 28.4501 10.1188 28.4291 10.0141 28.3872C9.80459 28.3034 9.57414 28.2615 9.38559 28.1777L8.90374 27.9892C8.48474 27.8006 7.35344 27.2559 6.95539 27.0255C6.93444 27.0045 6.91349 26.9836 6.89254 26.9836L6.22214 26.5646C6.01264 26.4179 5.82409 26.2503 5.61459 26.0827C5.40509 25.9151 5.17464 25.7475 4.96514 25.559L3.41485 23.9877C3.2263 23.7573 2.82825 23.2545 2.6816 22.9821C2.6397 22.9402 2.61875 22.9193 2.5978 22.8564L2.15785 22.207C2.095 22.1232 2.0531 22.0184 2.0112 21.9346L1.69695 21.3899C1.676 21.3271 1.65505 21.3061 1.61315 21.2433C1.4665 20.95 1.3408 20.6567 1.2151 20.3634L0.858949 19.4206C0.733249 19.1064 0.628499 18.7712 0.544699 18.436L0.3771 17.7656C0.27235 17.4094 0.23045 17.0323 0.1676 16.6552C0.02095 15.7334 0 15.0002 0 14.0365C0 13.2404 0.10475 12.4233 0.2514 11.6272L0.565649 10.3912C0.649449 10.056 0.984649 9.09229 1.1313 8.77804C1.15225 8.71519 1.1732 8.67329 1.19415 8.61044C1.23605 8.52664 1.27795 8.42189 1.3408 8.31714C1.36175 8.27524 1.3827 8.23334 1.40365 8.17049L1.94835 7.16489C2.07405 6.93444 2.2207 6.70399 2.36735 6.49449C2.57685 6.18024 2.78635 5.90789 3.0168 5.61459C3.1425 5.44699 3.54055 4.90229 3.70815 4.75564C3.75005 4.71374 3.75005 4.67184 3.8129 4.62994L4.44139 3.98049C4.52519 3.89669 4.60899 3.83385 4.67184 3.75005L4.96514 3.49865C5.11179 3.37295 5.23749 3.24725 5.36319 3.12155L5.48889 3.03775C5.61459 2.933 5.74029 2.8492 5.86599 2.74445C6.11739 2.5559 6.38974 2.3883 6.66209 2.2207C7.12299 1.9274 7.41629 1.7598 7.91909 1.5084L8.35904 1.27795C8.86184 1.02655 9.38559 0.837999 9.93029 0.670399C9.99314 0.649449 10.056 0.628499 10.0979 0.628499C10.454 0.502799 10.9778 0.398049 11.3339 0.31425C11.8367 0.2095 12.3395 0.1257 12.8423 0.0628499C12.968 0.0628499 13.1356 0.0418999 13.2613 0.0418999C13.4289 0.0418999 13.7432 0.0418999 13.9108 0.0418999C13.9736 0.02095 14.0365 0 14.0784 0H14.3507C14.4974 0 15.482 0.0628499 15.6915 0.0837999L16.6133 0.2095C16.8438 0.23045 17.0742 0.27235 17.3256 0.31425C17.5561 0.35615 17.7656 0.418999 17.996 0.460899C18.7502 0.670399 19.693 0.984649 20.4053 1.31985L20.8243 1.52935C20.8662 1.5503 20.9081 1.57125 20.9709 1.5922C21.1595 1.69695 21.3271 1.78075 21.5156 1.8855L22.0394 2.1788C22.3536 2.36735 22.4793 2.4721 22.7936 2.66065L23.3802 3.07965C23.4221 3.12155 23.464 3.1425 23.5059 3.16345C23.5478 3.20535 23.5687 3.2263 23.6106 3.2682L24.7838 4.33664C24.9933 4.52519 25.1609 4.73469 25.3285 4.92324L26.1246 5.90789C26.2503 6.07549 26.5017 6.43164 26.6274 6.62019L26.8579 6.99729C26.9836 7.20679 27.235 7.62579 27.3397 7.85624C27.3607 7.87719 27.3607 7.89814 27.3816 7.91909C27.4235 8.02384 27.4654 8.08669 27.5073 8.19144C27.5492 8.29619 27.5911 8.37999 27.633 8.48474C27.8425 8.88279 28.073 9.53224 28.1987 9.97219L28.3453 10.6426C28.4082 10.8521 28.4291 11.1035 28.471 11.3549C28.471 11.3968 28.492 11.4806 28.492 11.5434L28.5129 11.9205C28.5339 12.13 28.4501 12.0881 28.3034 12.0881L27.0045 12.0253C26.8998 12.0043 26.795 12.0043 26.6903 12.0043C26.397 11.9834 26.1456 11.9205 25.957 11.711C25.8942 11.6482 25.8523 11.5853 25.8104 11.5015L25.7056 11.2711C25.6847 11.1873 25.6428 11.1244 25.6218 11.0406C25.538 10.873 25.3076 10.3702 25.2238 10.2445L25.0562 9.90934C24.8676 9.57414 24.6791 9.25989 24.4905 8.94564C24.4696 8.90374 24.4486 8.88279 24.4277 8.84089C24.1553 8.42189 24.0087 8.08669 23.6944 7.70959C23.6735 7.66769 23.6525 7.64674 23.6316 7.60484C23.5478 7.52104 23.4849 7.41629 23.4011 7.31154L23.0869 6.95539C23.045 6.89254 22.8983 6.72494 22.8355 6.70399C22.8145 6.76684 22.7098 6.91349 22.6679 6.97634C22.5422 7.18584 22.3746 7.33249 22.207 7.52104L21.7251 8.06574C21.5994 8.19144 21.4737 8.35904 21.348 8.48474C21.3271 8.50569 21.3061 8.52664 21.2852 8.54759L21.1595 8.71519C21.0338 8.86184 20.8871 8.98754 20.7405 9.13419L20.5519 9.34369C20.3634 9.55319 20.1748 9.78364 19.9863 9.99314C19.9234 10.056 19.8396 10.1188 19.7768 10.2026L19.3997 10.6216C19.253 10.8102 19.0645 10.9778 18.9178 11.1663L18.436 11.711C18.1217 12.0253 17.8494 12.3605 17.5561 12.6747L16.6971 13.6384C16.6971 13.7013 17.2628 14.2669 17.3466 14.3926C17.4723 14.5393 17.6189 14.6859 17.7446 14.8116L18.2265 15.3773C18.2474 15.3982 18.2684 15.4192 18.2893 15.4401C18.415 15.6077 18.5826 15.7753 18.7293 15.9429L19.4416 16.739C19.4625 16.76 19.4625 16.7809 19.5044 16.8019L19.8396 17.179C19.8606 17.1999 19.8606 17.1999 19.8815 17.2209C19.9025 17.2628 19.9025 17.2628 19.9444 17.3047L20.3215 17.7446C20.3424 17.7656 20.3634 17.7656 20.3843 17.7865C20.4053 17.8284 20.4053 17.8284 20.4472 17.8494L21.369 18.8969C21.4737 19.0226 21.5994 19.1483 21.7042 19.274L22.0813 19.7139C22.1651 19.7768 22.2279 19.8815 22.3117 19.9444C22.3536 20.0072 22.3746 20.0282 22.4165 20.0701L22.9821 20.6986C23.0031 20.7195 23.0031 20.7195 23.024 20.7614L23.6316 21.4318C23.7782 21.6204 23.7992 21.5366 23.9877 21.3899C24.1763 21.2433 24.3229 21.0128 24.4486 20.8243C24.4696 20.7824 24.4905 20.7614 24.5115 20.7195L24.6581 20.4472C24.7 20.3634 24.7419 20.2796 24.8048 20.1958C24.8676 20.112 25.0143 19.7558 25.0562 19.672L25.2238 19.2321C25.3495 18.9388 25.4961 18.4988 25.559 18.1846C25.6218 17.9122 25.8104 17.1161 25.6847 16.8438C24.8467 16.8438 23.9877 16.8438 23.1497 16.8438C22.207 16.8438 21.2852 16.8019 20.3424 16.8019V13.9108H28.7434C28.7643 13.9946 28.7853 14.0574 28.8062 14.1412C28.8691 14.4136 28.9319 14.8116 28.9319 15.1049C28.9319 15.1468 28.9319 15.1887 28.9319 15.2516C28.9529 15.3773 28.9529 15.5239 28.9738 15.6496Z" fill="#282829"/>
<path fill-rule="evenodd" clip-rule="evenodd" d="M6.85067 16.9904C6.91352 16.9695 6.95542 16.9066 6.99732 16.8647L9.15516 14.7488C9.32276 14.5812 9.59511 14.3088 9.78366 14.1203C9.80461 14.0993 9.82556 14.0993 9.84651 14.0574L10.6636 13.2613C10.8312 13.1356 11.1664 12.7376 11.313 12.6119L12.4234 11.5225C12.5281 11.4387 12.8214 11.1244 12.9262 11.0406L13.8899 10.0979C14.267 9.69984 14.665 9.32274 15.0631 8.94564L15.5659 8.44284C15.6287 8.37999 15.6497 8.27524 15.6916 8.12859C15.7335 8.04479 15.7335 7.98194 15.7544 7.89814L15.8382 7.54199C15.8592 7.50009 15.8801 7.45819 15.8173 7.45819C15.3773 7.45819 14.2251 7.43724 13.827 7.47914C13.6804 7.50009 13.6175 7.52104 13.4918 7.56294C13.2823 7.62579 13.0938 7.77244 12.9262 7.89814C12.9052 7.91909 12.8843 7.94004 12.8633 7.96099C12.6957 8.08669 11.753 9.02944 11.6063 9.19704L11.2711 9.57414C11.2083 9.61604 11.1664 9.65794 11.1245 9.69984C11.0826 9.74174 11.0826 9.76269 11.0616 9.78364L10.7683 10.0769C10.6217 10.2655 10.4331 10.454 10.2655 10.6007L10.1189 10.7683C10.0351 10.873 9.93031 10.9568 9.84651 11.0616C9.69986 11.1873 9.34371 11.5225 9.21801 11.6063C9.21801 10.2655 9.19706 8.92469 9.21801 7.58389C9.21801 7.45819 9.21801 7.47914 8.81996 7.50009C8.65236 7.50009 8.50571 7.47914 8.33811 7.47914C7.98196 7.47914 7.68866 7.45819 7.33252 7.45819C7.24872 7.45819 7.16492 7.47914 7.08112 7.45819C7.06017 7.45819 7.01827 7.43724 6.97637 7.45819C6.91352 7.45819 6.93447 7.45819 6.93447 7.52104V9.05039C6.93447 9.21799 6.91352 9.34369 6.91352 9.53224C6.91352 10.8521 6.87162 12.1719 6.87162 13.4918C6.87162 13.6803 6.87162 13.806 6.87162 13.9946V15.0002C6.82972 15.3563 6.85067 16.5505 6.85067 16.9904Z" fill="#282829"/>
</svg>
